<svg width="124" height="63" viewBox="0 0 124 63" fill="none" xmlns="http://www.w3.org/2000/svg">
<path id="Vector 5 (Stroke)" fill-rule="evenodd" clip-rule="evenodd" d="M34.7063 7.75713C38.4103 3.23006 43.3957 0.0577005 49.1745 1.07749C52.2036 1.61204 54.5142 3.32907 55.7249 6.0195C56.853 8.52647 56.8774 11.5404 56.2862 14.6009C55.0988 20.7474 51.17 28.4315 45.0253 36.3684C41.6324 40.7508 37.0529 44.6778 32.1646 48.0693C32.8434 50.1981 33.7262 51.8824 34.7323 53.0521C35.9004 54.4102 37.1765 55.0318 38.6532 55.0318C40.5309 55.0318 42.7238 54.4121 45.1777 53.2282C47.612 52.0538 50.1295 50.4094 52.6126 48.5622C55.0896 46.7195 57.463 44.7279 59.6287 42.8816C59.939 42.6171 60.247 42.3539 60.5516 42.0934C62.3264 40.5763 63.9898 39.1543 65.3532 38.1318C65.5939 37.9512 65.8372 37.7681 66.0819 37.5838C67.319 36.6526 68.5944 35.6925 69.7783 34.8872C71.1401 33.9608 72.707 33.0057 74.2159 32.5813C74.9945 32.3623 76.0152 32.208 77.0941 32.4833C78.2827 32.7866 79.2285 33.5319 79.8438 34.5472C80.4037 35.4711 80.6342 36.5176 80.7228 37.4912C80.8137 38.4894 80.773 39.6193 80.6348 40.8631C80.397 43.0037 80.2805 45.105 80.3334 46.9454C80.3877 48.8356 80.6165 50.238 80.9406 51.1005C80.9835 51.2147 81.023 51.3077 81.058 51.3828C81.3544 51.2514 81.8882 50.9505 82.7008 50.254C85.1655 48.1414 87.2446 45.4725 89.1558 43.0191C89.7475 42.2596 90.323 41.5208 90.889 40.8255C91.4574 40.1271 92.0439 39.4433 92.6233 38.8738C93.1557 38.3505 93.9096 37.6907 94.8342 37.3112C95.9415 36.8566 97.498 36.7591 98.8419 37.8501C99.8744 38.6884 100.316 39.8935 100.547 40.7424C101.229 43.2413 101.244 45.6647 101.156 47.6323C101.13 48.2261 101.089 48.8606 101.052 49.4225C101.032 49.7407 101.013 50.0356 100.998 50.2868C100.963 50.9161 100.95 51.3935 100.964 51.7669C101.086 51.7514 101.228 51.7293 101.393 51.6978C102.145 51.5541 103.184 51.2535 104.6 50.7228C112.929 47.5993 116.515 39.7836 117.216 36.4199C117.554 34.7979 119.143 33.7569 120.765 34.0948C122.387 34.4327 123.428 36.0216 123.09 37.6436C122.124 42.28 117.577 52.2643 106.707 56.3408C105.122 56.935 103.732 57.3594 102.519 57.5912C101.336 57.8173 100.109 57.9029 98.9542 57.6254C97.6778 57.3186 96.6075 56.5924 95.9029 55.4785C95.273 54.4828 95.0763 53.3964 95.0031 52.5541C94.9282 51.6913 94.9617 50.7753 95.0079 49.951C95.0285 49.5825 95.0508 49.244 95.0726 48.9108C95.1054 48.4116 95.1373 47.9243 95.1621 47.366C95.1966 46.5894 95.2071 45.8255 95.1703 45.0764C94.8512 45.4782 94.5058 45.9226 94.1362 46.3983C92.1941 48.8974 89.5832 52.2573 86.6055 54.8095C84.6972 56.4453 82.4438 57.7628 80.0428 57.4416C77.347 57.081 75.9721 54.9354 75.3242 53.2112C74.6568 51.4353 74.3975 49.2619 74.3358 47.1178C74.2728 44.9238 74.4124 42.5323 74.6715 40.2005C74.7313 39.6619 74.7609 39.2115 74.7691 38.8386C74.3316 39.0796 73.7958 39.4109 73.153 39.8482C72.0993 40.5649 70.9639 41.4194 69.7262 42.3507C69.4729 42.5413 69.2153 42.7352 68.9532 42.9318C67.757 43.8289 66.2697 45.0998 64.4772 46.6314C64.1677 46.8959 63.8491 47.1681 63.5213 47.4476C61.3433 49.3043 58.8417 51.4065 56.1937 53.3763C53.5519 55.3416 50.6943 57.2285 47.7849 58.6322C44.895 60.0264 41.7754 61.0318 38.6532 61.0318C35.1298 61.0318 32.2809 59.4033 30.1834 56.9646C28.8376 55.3999 27.7863 53.4945 26.983 51.4138C26.1223 51.9321 25.2616 52.4336 24.4052 52.918C16.8029 57.2183 9.27483 60.3202 4.60184 61.8779C3.03001 62.4018 1.33105 61.5524 0.807108 59.9805C0.283164 58.4087 1.13264 56.7097 2.70447 56.1858C7.03148 54.7435 14.2034 51.7953 21.4511 47.6956C22.7657 46.9521 24.0739 46.1755 25.3615 45.3683C24.3029 39.187 24.6288 32.0291 26.2492 25.779C28.0693 18.7583 30.9734 12.3196 34.7063 7.75713ZM30.9147 41.5772C34.5698 38.8453 37.83 35.8612 40.281 32.6953C46.1364 25.1321 49.4575 18.3163 50.3951 13.4628C50.8664 11.0233 50.6721 9.41222 50.2533 8.48169C49.9171 7.73462 49.3527 7.20165 48.1318 6.9862C45.4106 6.50599 42.3961 7.83363 39.35 11.5566C36.3329 15.2441 33.737 20.8054 32.0571 27.2847C30.8741 31.8479 30.4948 36.9595 30.9147 41.5772ZM75.9507 38.3322C75.9506 38.3323 75.9468 38.333 75.9394 38.3337C75.9471 38.3324 75.9508 38.332 75.9507 38.3322ZM94.6667 42.0481C94.6669 42.0476 94.6711 42.0556 94.6787 42.0737C94.6702 42.0577 94.6665 42.0487 94.6667 42.0481ZM81.2306 51.6688C81.2301 51.6709 81.2188 51.6614 81.1986 51.6341C81.221 51.6531 81.2312 51.6667 81.2306 51.6688Z" fill="#0066FF"/>
</svg>
