<svg width="88" height="163" viewBox="0 0 88 163" fill="none" xmlns="http://www.w3.org/2000/svg">
<path id="Union" fill-rule="evenodd" clip-rule="evenodd" d="M75.8907 19.9008L77.1345 16.4834C78.6457 12.3315 76.505 7.7408 72.3532 6.22966L57.3181 0.757341C53.1663 -0.753799 48.5755 1.3869 47.0644 5.53872L0.962431 132.203C0.593499 133.217 0.50465 134.311 0.705239 135.371L5.28465 159.568C5.70791 161.804 8.36994 162.773 10.1318 161.332L29.1933 145.74C30.0283 145.057 30.6637 144.162 31.0326 143.148L72.6677 28.7558C72.9361 28.5128 73.1647 28.2168 73.3364 27.8735C73.6134 27.3195 74.1634 26.6299 74.9848 26.2325C75.717 25.8782 76.9975 25.5906 79.1443 26.3572C80.2333 26.7462 80.7754 27.2306 81.0726 27.6333C81.3806 28.0506 81.5757 28.5854 81.644 29.2874C81.7924 30.8127 81.3059 32.5868 80.8071 34.0832C80.0219 36.4386 73.8417 53.6512 70.8304 62.0157C70.2692 63.5746 71.078 65.2933 72.6369 65.8546C74.1959 66.4158 75.9146 65.607 76.4758 64.048C79.4645 55.7459 85.6843 38.4252 86.4992 35.9806C87.0004 34.477 87.8994 31.6209 87.6158 28.7062C87.468 27.1882 86.9926 25.5505 85.9002 24.0703C84.797 22.5756 83.2088 21.4377 81.1622 20.7068C79.25 20.0239 77.4862 19.7842 75.8907 19.9008ZM55.266 6.3955L70.301 11.8678C71.339 12.2456 71.8742 13.3933 71.4964 14.4312L69.6978 19.3729L50.9039 12.5325L52.7025 7.59084C53.0803 6.55289 54.228 6.01771 55.266 6.3955ZM10.241 153.491L7.34899 136.282L24.153 142.398L10.241 153.491ZM48.7757 18.3802L67.5696 25.2206L26.8829 137.006L8.08906 130.166L48.7757 18.3802Z" fill="black"/>
</svg>
